<?xml version="1.0" standalone="no"?><!DOCTYPE svg PUBLIC "-//W3C//DTD SVG 1.1//EN" "http://www.w3.org/Graphics/SVG/1.1/DTD/svg11.dtd"><svg t="1642231867365" class="icon" viewBox="0 0 1024 1024" version="1.1" xmlns="http://www.w3.org/2000/svg" p-id="15581" width="48" height="48" xmlns:xlink="http://www.w3.org/1999/xlink"><defs><style type="text/css"></style></defs><path d="M927.232 355.84c0.64 1.28 0.64 1.92 0.64 2.56v512c0 84.48-69.12 153.6-153.6 153.6h-512c-84.48 0-153.6-69.12-153.6-153.6V153.6c0-84.48 69.12-153.6 153.6-153.6h334.08c1.92 0 3.84 0.64 5.76 0.64 1.28 0 3.2 0 4.48 0.64 1.28 0 3.2 0.64 4.48 1.28 1.28 0.64 3.2 1.28 4.48 1.92 1.92 0.64 3.2 1.92 4.48 2.56 1.28 0.64 3.2 1.28 4.48 2.56 1.28 1.28 2.56 1.92 3.84 3.2l3.84 3.84 0.64 0.64 281.6 307.2c0.64 0.64 1.28 1.92 1.92 2.56 1.28 1.28 1.92 3.2 3.2 4.48 1.28 1.28 1.92 3.2 2.56 4.48 0.64 1.28 1.28 3.2 1.92 4.48 0.64 1.92 0.64 3.2 1.28 5.12 0.64 1.28 1.28 3.2 1.28 4.48 0.64 1.92 0.64 3.84 0.64 5.76zM620.672 155.52v101.12c0 28.16 23.04 51.2 51.2 51.2h88.32l-139.52-152.32z m51.2 357.12c28.16 0 51.2 23.04 51.2 51.2s-23.04 51.2-51.2 51.2h-307.2c-28.16 0-51.2-23.04-51.2-51.2s23.04-51.2 51.2-51.2h307.2z m0 204.8c28.16 0 51.2 23.04 51.2 51.2s-23.04 51.2-51.2 51.2h-307.2c-28.16 0-51.2-23.04-51.2-51.2s23.04-51.2 51.2-51.2h307.2z m102.4 204.8c28.16 0 51.2-23.04 51.2-51.2v-460.8h-153.6c-84.48 0-153.6-69.12-153.6-153.6v-153.6h-256c-28.16 0-51.2 23.04-51.2 51.2v716.8c0 28.16 23.04 51.2 51.2 51.2h512z" p-id="15582" fill="#ffffff"></path></svg>