<svg id="图层_1" data-name="图层 1" xmlns="http://www.w3.org/2000/svg" viewBox="0 0 48 48">
  <defs>
    <style>
      .cls-1 {
        fill: #fff;
      }
    </style>
  </defs>
  <g>
    <path class="cls-1" d="M7217,7192h-3.15v11.51c.69.07,1.53.11,2.5.12a1.05,1.05,0,0,0,1.21-1.17c0-1.2-.78-2.68-2.32-4.43Z" transform="translate(-7175.5 -7175.5)"/>
    <path class="cls-1" d="M7213.57,7175.5h-28.14a9.92,9.92,0,0,0-9.93,9.93v28.14a9.92,9.92,0,0,0,9.93,9.93h28.14a9.92,9.92,0,0,0,9.93-9.93v-28.14A9.92,9.92,0,0,0,7213.57,7175.5ZM7187.22,7209h-3.08v-3.44l-4.78,1.6-.55-3.18q2.7-.72,5.33-1.48v-5.58h-4.94v-2.7h4.94v-5h3.08Zm6.82-3.07h.52a1.3,1.3,0,0,0,.86-.29,1.68,1.68,0,0,0,.51-.87,28.8,28.8,0,0,0,.35-3.83l2.89.89q-.16,2.13-.39,3.66a3.54,3.54,0,0,1-1.14,2.29,3.71,3.71,0,0,1-2.51.77h-1.82c-2.4,0-3.59-1.08-3.59-3.24v-16.1h3.07v6q2.41-1.65,4.43-3.32l2.12,2.42c-2,1.47-4.22,2.92-6.55,4.36v6.06C7192.79,7205.49,7193.21,7205.88,7194,7205.88Zm16.53-10.85H7204v8.73h6v2.59h-8.82V7195h-1.27v-2.59h4.53c-.37-1.09-.75-2.11-1.15-3.07l2.88-.8c.45,1,.92,2.09,1.43,3.28l-2.17.59h5.14Zm6.3,11.46h-2.4c-.19-.91-.4-1.75-.61-2.5v5.19h-2.79v-19.69h8.69v2.42l-1.74,5.78a7.32,7.32,0,0,1,2,5Q7220.07,7206.49,7216.87,7206.49Z" transform="translate(-7175.5 -7175.5)"/>
  </g>
</svg>
