<svg xmlns="http://www.w3.org/2000/svg" viewBox="0 0 3789.39355 900"><defs><style>.a{fill:#ffe600;}.b{fill:#ccc;}</style></defs><path class="a" d="M500,930A430.11856,430.11856,0,0,1,332.63086,103.7832,430.11659,430.11659,0,0,1,667.36914,896.2168,427.28511,427.28511,0,0,1,500,930Z" transform="translate(-50 -50)"/><path d="M500,90A410.11875,410.11875,0,0,1,659.57812,877.79663,410.11655,410.11655,0,0,1,340.42188,122.20331,407.39644,407.39644,0,0,1,500,90m0-40C251.47186,50,50,251.47186,50,500c0,248.52808,201.47186,450,450,450,248.52808,0,450-201.47192,450-450C950,251.47186,748.52808,50,500,50Z" transform="translate(-50 -50)"/><path class="b" d="M1231.47559,239.74414V341.10352h64.96v75.04h-64.96v69.99952l59.91992-14,9.51953,74.48L1231.47559,564.543v122.0791c0,37.51953-6.16016,57.12012-27.44043,69.43945-21.2793,12.32032-50.39942,14.56055-91.2793,14.56055-2.24024-20.71973-12.32031-53.75977-21.83984-74.47949,19.5996,1.11914,42.55957,1.11914,49.83984,1.11914,7.83984-.55957,10.63965-2.79981,10.63965-10.63965V584.14258l-53.75977,12.87988-19.04-77.83984c21.28028-3.91992,45.91992-8.96,72.79981-14.55957v-88.4795h-62.15918v-75.04h62.15918V239.74414Zm314.1582,2.79981,48.16016,68.87988c-58.79981,17.91992-129.35938,31.91992-196.55957,40.87988v75.03955h215.03906v77.27979h-73.91992v265.999h-80.63868v-265.999h-61.04c-3.36035,90.15918-18.48046,185.35937-70,269.91894-15.67968-17.91992-44.23925-39.20019-66.0791-52.63965,49.83887-89.59961,55.999-184.23925,55.999-264.87939V292.94385C1397.79492,282.30371,1484.59375,263.82422,1545.63379,242.544Z" transform="translate(-50 -50)"/><path class="b" d="M1826.75488,258.78418V487.82324a242.3368,242.3368,0,0,0,37.52051-28H1832.915v-61.04h79.51953a153.534,153.534,0,0,0,11.75977-23.51953h-78.959V315.90381H1869.875a253.52533,253.52533,0,0,0-19.04-57.11963l60.47949-16.80029c11.2002,19.60009,20.72071,46.48,23.52051,64.3999l-31.91992,9.52h42c6.15918-23.52,10.0791-48.71973,13.43945-76.15967l71.12012,7.27979c-3.36035,24.08007-7.83984,47.04-12.87988,68.87988h49.83984l-19.60059-5.6001c7.83985-19.59961,17.36036-47.03955,21.28028-67.19971l73.35937,19.04-27.43945,53.75977h44.23926v59.35986H1998.6748l-8.96,23.51953h181.43848v61.04H2131.9541c16.23926,14,34.71973,26.31983,54.87988,34.15967-15.68066,12.88037-36.96,38.64014-47.04,55.99951a194.56379,194.56379,0,0,1-50.96-36.959c-3.91992,21.27929-8.40039,41.999-12.87988,59.91894h73.35938s-.55957,16.79981-1.67969,25.75977c-6.71973,91.28027-14.55957,132.71973-29.67969,148.96-11.75976,14-25.20019,18.47949-42.55957,20.71973-14.56055,1.67968-38.64062,2.24023-64.40039,1.12011-1.12012-19.04-8.39941-44.7998-19.04-61.59961,20.7207,1.67969,40.32031,2.23926,50.40039,2.23926,7.83985,0,12.87989-1.11914,17.91992-5.59961,6.71973-6.71972,12.31934-28,16.23926-73.91992H1872.6748a789.71147,789.71147,0,0,0,16.79981-82.31934l68.87988,5.59961-3.36035,19.04h49.28027l7.83985-31.91992H1887.23535v-7.83984c-8.96,6.71972-18.48047,12.87988-28.56055,19.04-6.16015-9.51954-19.5996-26.31934-31.91992-39.19922V694.46191c0,29.67969-3.91992,48.71973-20.71972,60.4795-16.79981,11.76074-38.08008,13.44043-68.31934,13.44043-1.68066-18.4795-9.52051-49.83985-17.91992-67.75977,13.43945,1.12012,28.55957,1.12012,33.59961.55957,5.59961,0,7.28027-1.67969,7.28027-8.39941V588.0625h-36.96c-4.48047,64.96-12.87988,132.15918-29.67969,181.999-12.87988-10.08007-42.56054-26.31933-58.7998-31.91992,25.75976-77.83887,26.87988-191.51855,26.87988-273.27832V258.78418Zm-99.67968,205.519-.55958,48.72022h34.16016V458.14307H1727.0752Zm0-79.52h33.60058V332.14355H1727.0752Zm320.8789,260.959v52.63965H1848.59473V645.74219Zm-91.2793-185.919a298.1495,298.1495,0,0,1-20.16015,26.31983H2065.874c-6.71972-8.39991-12.31933-17.35987-17.91992-26.31983Z" transform="translate(-50 -50)"/><path class="b" d="M2433.23535,558.94238c15.67969-47.59961,16.79981-105.83935,19.04-175.83886h86.23926c-2.24024,66.07959-5.04,124.87988-17.91992,175.83886h193.75879v67.75977h-218.959c-34.16015,65.51953-98.55957,113.67969-221.19922,145.04-7.83984-21.28028-28-52.64063-45.35937-70,79.51953-17.91992,130.47949-42.55957,162.39941-75.04H2224.916V558.94238Zm-7.28027-272.71875-14.55957-30.23974,82.31933-25.19971c10.08008,16.7998,21.83985,36.96,29.67969,55.43945h188.15918V422.86328H2625.874V361.82373H2307.7959v61.03955h-81.2002V286.22363ZM2303.31543,444.70312c28.55957,12.31983,65.51953,34.16016,84,51.52l-48.71973,60.48c-16.24023-17.91992-52.63965-42-81.20019-57.12011Zm58.7998-81.1997c28.55957,14,65.51954,36.96,83.43946,56l-50.96,58.23974c-15.11914-18.48-50.959-44.7998-79.51953-61.04Zm157.919,270.479c71.67969,17.35938,151.2002,47.04,196,70.55957l-48.71973,64.96c-42-26.32031-114.7998-57.12011-184.7998-75.04Z" transform="translate(-50 -50)"/><path class="b" d="M2898.03516,592.543l6.16015,58.79883c-46.47949,10.08008-95.19922,20.7207-136.0791,29.12011l-12.87988-62.15918C2792.75586,612.70215,2845.39551,602.62207,2898.03516,592.543ZM3179.1543,256.544l-15.12012,26.31982c37.51953,37.52,89.59961,77.83984,137.75977,100.23975-12.87989,20.71972-28,59.35986-34.71973,82.31933a480.76531,480.76531,0,0,1-47.04-33.03955v45.35986h-176.959v-51.52a544.52626,544.52626,0,0,1-52.08008,40.31983c-7.28028-13.43994-24.63965-39.75977-38.08008-57.11963l-6.71973,89.03955h42.55957s-.55957,19.04-1.12011,27.44043c-5.59961,138.87891-12.31934,194.87891-29.11915,215.03809-12.88085,16.24023-26.88085,21.28027-45.91992,24.08007-15.68066,2.24024-42,2.24024-68.87988,1.68067-1.12012-19.60059-8.96-46.48047-20.16016-64.40039,23.51954,2.24023,45.36036,2.7998,56,2.7998,8.96,0,14-1.11914,19.59961-7.27929,8.40039-10.08008,14.55957-47.59961,18.48047-136.63965H2775.39551c6.7207-52.0791,11.76074-136.0791,13.44043-201.03907l68.87988,3.35987c-2.24023,42.56006-5.60059,92.3999-8.96,135.51953h30.23926c5.60058-48.15967,10.08008-112.55957,12.87988-173.59912H2767.55566V257.66406h193.75977c-1.68066,43.11963-4.48047,91.2793-7.28027,137.19922,61.59961-38.07959,120.959-97.99951,154.55957-162.959Zm-15.12012,423.918c6.16016-14,12.32031-30.23925,17.91992-47.04l-61.59961,9.5205c-2.24023-35.83984-11.75976-90.71972-20.16015-132.15918l61.59961-8.40039a1244.94651,1244.94651,0,0,1,22.96,123.75977,1089.36573,1089.36573,0,0,0,34.16015-123.75977l72.79981,15.12012c-18.48047,55.43945-40.87989,116.47949-61.04,162.959h56.55957v68.32032H2992.11523V680.46191ZM3065.47461,510.7832c12.32031,41.43946,24.63965,94.63965,30.24023,129.91895l-65.51953,18.48047c-3.36035-35.83985-15.68066-90.71973-26.32031-132.15918Zm-4.47949-100.7998h131.59863a896.19552,896.19552,0,0,1-70.55957-66.63965A695.0754,695.0754,0,0,1,3060.99512,409.9834Z" transform="translate(-50 -50)"/><path class="b" d="M3617.63477,230.78418a278.17382,278.17382,0,0,1,22.96,50.96h195.999V394.86328h-63.83984v55.43994h-44.23926c30.23926,25.19971,61.59961,53.76026,79.51953,76.15967L3744.19434,569.583c-7.28028-10.08008-17.36036-21.83985-29.12012-34.16016-242.47852,19.04-275.51856,21.83985-300.1582,31.35938-3.91993-14.55957-15.12012-49.2793-22.96-68.8794,13.43946-2.23974,25.19922-8.96,40.31934-20.15967,7.28027-4.48,20.71973-14,36.40039-27.43994h-64.40039V394.86328h-65.51953V281.74414H3549.875q-5.87988-15.12012-11.75977-28.56006ZM3544.835,583.583V549.98242h84V583.583h168.55859v69.43945H3628.835V685.502h210.55859v71.12012H3339.876V685.502h204.959V653.02246H3388.5957V583.583ZM3753.1543,381.42334V355.10352H3418.27539v26.31982Zm-94.63965,68.87988H3572.835c-14.55957,12.87989-30.7998,26.31983-47.59961,38.63965l132.15918-8.3999-19.59961-16.79981Z" transform="translate(-50 -50)"/><path d="M781.81268,735.46353l0,0a39.9999,39.9999,0,0,1-56.56837,0L392.90378,403.12334a39.9999,39.9999,0,0,1,0-56.56837l.00009-.00009a40,40,0,0,1,56.56841,0L781.81273,678.89511A39.99992,39.99992,0,0,1,781.81268,735.46353Z" transform="translate(-50 -50)"/><path d="M773.45142,434.66852a291.25876,291.25876,0,0,1-25.70081,110.5188,285.27064,285.27064,0,0,1-30.96875,52.53534L735.94519,616.886a309.61822,309.61822,0,0,0,52.50623-182.21747,306.28743,306.28743,0,0,0-26.84-116.25379,302.079,302.079,0,0,0-68.52771-95.87841,298.31014,298.31014,0,0,1,61.59741,98.74585A295.03432,295.03432,0,0,1,773.45142,434.66852Z" transform="translate(-50 -50)"/><path d="M641.59351,667.95447A279.527,279.527,0,0,1,480.951,712.16809a276.22708,276.22708,0,0,1-104.78388-24.56128,272.08484,272.08484,0,0,1-86.13482-62.02026l-42.42646,42.42639a328.42712,328.42712,0,0,0,108.489,68.10535,325.0257,325.0257,0,0,0,124.85608,21.0498,321.3162,321.3162,0,0,0,121.98871-27.97961,315.44694,315.44694,0,0,0,62.54913-37.33887Z" transform="translate(-50 -50)"/><polygon points="155.913 533.893 280.777 586.315 223.522 601.502 208.343 658.749 155.913 533.893"/><path d="M561.80889,305.08967l-192.333,192.33308L305.8363,433.78316Q384.58977,355.03,463.34288,276.2766" transform="translate(-50 -50)"/></svg>