<svg xmlns="http://www.w3.org/2000/svg" viewBox="0 0 1000 1000"><defs><style>.a{fill:#ffe600;}</style></defs><path class="a" d="M500,930A430.12,430.12,0,0,1,332.63,103.78,430.12,430.12,0,0,1,667.37,896.22,427.41,427.41,0,0,1,500,930Z"/><path d="M500,90A410.13,410.13,0,0,1,659.58,877.8,410.12,410.12,0,0,1,340.42,122.2,407.36,407.36,0,0,1,500,90m0-40C251.47,50,50,251.47,50,500S251.47,950,500,950,950,748.53,950,500,748.53,50,500,50Z"/><path d="M781.81,735.46h0a40,40,0,0,1-56.57,0L392.9,403.12a40,40,0,0,1,0-56.57h0a40,40,0,0,1,56.57,0L781.81,678.9A40,40,0,0,1,781.81,735.46Z"/><path d="M773.45,434.67a291.15,291.15,0,0,1-25.7,110.52,285.21,285.21,0,0,1-31,52.53L736,616.89a309.72,309.72,0,0,0,52.5-182.22,306.13,306.13,0,0,0-26.84-116.26,302,302,0,0,0-68.53-95.87,298.28,298.28,0,0,1,61.6,98.74A294.92,294.92,0,0,1,773.45,434.67Z"/><path d="M641.59,668A279.42,279.42,0,0,1,481,712.17a276.32,276.32,0,0,1-104.78-24.56,272.27,272.27,0,0,1-86.14-62L247.61,668a328.41,328.41,0,0,0,108.48,68.11,325,325,0,0,0,124.86,21,321.33,321.33,0,0,0,122-28,315.64,315.64,0,0,0,62.55-37.34Z"/><polygon points="205.91 583.89 330.78 636.32 273.52 651.5 258.34 708.75 205.91 583.89"/><path d="M561.81,305.09,369.48,497.42l-63.64-63.64,157.5-157.5"/></svg>